<svg width="45" height="45" viewBox="0 0 45 45" fill="none" xmlns="http://www.w3.org/2000/svg">
<g id="Frame">
<path id="Vector" d="M39.375 34.6875C39.375 37.2769 37.2769 39.375 34.6875 39.375H10.3125C7.72406 39.375 5.625 37.2769 5.625 34.6875V10.3125C5.625 7.72312 7.72406 5.625 10.3125 5.625H34.6875C37.2769 5.625 39.375 7.72312 39.375 10.3125V34.6875Z" fill="white"/>
<path id="Vector_2" opacity="0.05" d="M28.125 34.6875V25.2197C28.125 23.6362 27.3572 22.6903 26.07 22.6903C25.3059 22.6903 24.7444 23.1206 24.4022 23.9691C24.3862 24.0291 24.3637 24.2737 24.3731 25.0134L24.375 34.6875H17.8125V16.875H24.375V17.8697C25.3331 17.2088 26.5078 16.875 27.8794 16.875C32.1422 16.875 34.6866 19.7747 34.6866 24.6319L34.6875 34.6875H28.125ZM10.3125 34.6875V16.875H13.5534C11.6756 16.875 10.3125 15.495 10.3125 13.5928C10.3125 11.6925 11.6981 10.3125 13.6069 10.3125C15.4931 10.3125 16.8366 11.6541 16.875 13.5741C16.875 15.4903 15.4884 16.875 13.5797 16.875H16.875V34.6875H10.3125Z" fill="black"/>
<path id="Vector_3" opacity="0.07" d="M28.5938 34.2188V25.2197C28.5938 23.37 27.6272 22.2216 26.07 22.2216C24.8559 22.2216 24.2559 23.0766 23.9672 23.7937C23.8903 23.9803 23.9006 24.7209 23.9044 25.0369L23.9062 34.2188H18.2812V17.3438H23.9062V18.8794C24.6516 18.1078 25.8516 17.3438 27.8794 17.3438C31.8478 17.3438 34.2178 20.0681 34.2178 24.6319L34.2188 34.2188H28.5938ZM10.7812 34.2188V17.3438H16.4062V34.2188H10.7812ZM13.5534 16.4062C11.9475 16.4062 10.7812 15.2231 10.7812 13.5928C10.7812 11.9634 11.97 10.7812 13.6069 10.7812C15.2231 10.7812 16.3734 11.9334 16.4062 13.5834C16.4062 15.2231 15.2175 16.4062 13.5797 16.4062H13.5534Z" fill="black"/>
<path id="Vector_4" d="M11.25 17.8125H15.9375V33.75H11.25V17.8125ZM13.5797 15.9375H13.5534C12.1547 15.9375 11.25 14.895 11.25 13.5928C11.25 12.2625 12.1828 11.25 13.6069 11.25C15.0328 11.25 15.9113 12.2625 15.9375 13.5928C15.9375 14.8941 15.0328 15.9375 13.5797 15.9375ZM33.75 33.75H29.0625V25.2197C29.0625 23.1591 27.9141 21.7528 26.07 21.7528C24.6628 21.7528 23.9016 22.7016 23.5322 23.6184C23.3972 23.9466 23.4375 24.8541 23.4375 25.3125V33.75H18.75V17.8125H23.4375V20.265C24.1134 19.2187 25.1719 17.8125 27.8794 17.8125C31.2338 17.8125 33.7491 19.9219 33.7491 24.6319L33.75 33.75Z" fill="#7625F6"/>
</g>
</svg>
